<mxfile host="app.diagrams.net" modified="2021-12-08T07:58:30.872Z" agent="5.0 (Windows)" etag="jLAhYtIAzhrRsLfJGhFA" version="15.9.1" type="github">
  <diagram id="wnDa86_sgH5_1HbZJhVr" name="Page-1">
    <mxGraphModel dx="1085" dy="539" grid="1" gridSize="10" guides="1" tooltips="1" connect="1" arrows="1" fold="1" page="1" pageScale="1" pageWidth="850" pageHeight="1100" math="0" shadow="0">
      <root>
        <mxCell id="0" />
        <mxCell id="1" parent="0" />
        <mxCell id="a_ci2bYjOTqBM8tlO-We-2" value="mp_code_state_t" style="swimlane;fontStyle=1;childLayout=stackLayout;horizontal=1;startSize=26;fillColor=#fff2cc;horizontalStack=0;resizeParent=1;resizeParentMax=0;resizeLast=0;collapsible=1;marginBottom=0;fontSize=14;strokeColor=#d6b656;" parent="1" vertex="1">
          <mxGeometry x="65" y="290" width="240" height="292" as="geometry" />
        </mxCell>
        <mxCell id="a_ci2bYjOTqBM8tlO-We-3" value="+ fun_bc: mp_obj_fun_bc_t*" style="text;strokeColor=#666666;fillColor=#f5f5f5;align=left;verticalAlign=top;spacingLeft=4;spacingRight=4;overflow=hidden;rotatable=0;points=[[0,0.5],[1,0.5]];portConstraint=eastwest;fontSize=12;fontStyle=1;fontColor=#333333;" parent="a_ci2bYjOTqBM8tlO-We-2" vertex="1">
          <mxGeometry y="26" width="240" height="26" as="geometry" />
        </mxCell>
        <mxCell id="lMU0eE661rHLFskUPlmX-3" value="+ ip: const byte *" style="text;strokeColor=none;fillColor=none;align=left;verticalAlign=top;spacingLeft=4;spacingRight=4;overflow=hidden;rotatable=0;points=[[0,0.5],[1,0.5]];portConstraint=eastwest;fontStyle=1" vertex="1" parent="a_ci2bYjOTqBM8tlO-We-2">
          <mxGeometry y="52" width="240" height="26" as="geometry" />
        </mxCell>
        <mxCell id="lMU0eE661rHLFskUPlmX-7" value="+ sp:  mp_obj_t *" style="text;strokeColor=none;fillColor=none;align=left;verticalAlign=top;spacingLeft=4;spacingRight=4;overflow=hidden;rotatable=0;points=[[0,0.5],[1,0.5]];portConstraint=eastwest;fontStyle=1" vertex="1" parent="a_ci2bYjOTqBM8tlO-We-2">
          <mxGeometry y="78" width="240" height="26" as="geometry" />
        </mxCell>
        <mxCell id="lMU0eE661rHLFskUPlmX-6" value="+ n_state:  uint16_t" style="text;strokeColor=none;fillColor=none;align=left;verticalAlign=top;spacingLeft=4;spacingRight=4;overflow=hidden;rotatable=0;points=[[0,0.5],[1,0.5]];portConstraint=eastwest;fontStyle=1" vertex="1" parent="a_ci2bYjOTqBM8tlO-We-2">
          <mxGeometry y="104" width="240" height="26" as="geometry" />
        </mxCell>
        <mxCell id="lMU0eE661rHLFskUPlmX-8" value="+ exc_sp_idx:  uint16_t" style="text;strokeColor=none;fillColor=none;align=left;verticalAlign=top;spacingLeft=4;spacingRight=4;overflow=hidden;rotatable=0;points=[[0,0.5],[1,0.5]];portConstraint=eastwest;fontStyle=1" vertex="1" parent="a_ci2bYjOTqBM8tlO-We-2">
          <mxGeometry y="130" width="240" height="26" as="geometry" />
        </mxCell>
        <mxCell id="lMU0eE661rHLFskUPlmX-9" value="+ old_globals: mp_obj_dict_t *" style="text;strokeColor=none;fillColor=none;align=left;verticalAlign=top;spacingLeft=4;spacingRight=4;overflow=hidden;rotatable=0;points=[[0,0.5],[1,0.5]];portConstraint=eastwest;fontStyle=1" vertex="1" parent="a_ci2bYjOTqBM8tlO-We-2">
          <mxGeometry y="156" width="240" height="26" as="geometry" />
        </mxCell>
        <mxCell id="lMU0eE661rHLFskUPlmX-5" value="+ prev: struct _mp_code_state_t *" style="text;strokeColor=none;fillColor=none;align=left;verticalAlign=top;spacingLeft=4;spacingRight=4;overflow=hidden;rotatable=0;points=[[0,0.5],[1,0.5]];portConstraint=eastwest;fontStyle=1" vertex="1" parent="a_ci2bYjOTqBM8tlO-We-2">
          <mxGeometry y="182" width="240" height="26" as="geometry" />
        </mxCell>
        <mxCell id="a_ci2bYjOTqBM8tlO-We-4" value="+ frame: struct _mp_obj_frame_t *" style="text;strokeColor=#82b366;fillColor=#d5e8d4;align=left;verticalAlign=top;spacingLeft=4;spacingRight=4;overflow=hidden;rotatable=0;points=[[0,0.5],[1,0.5]];portConstraint=eastwest;fontSize=12;fontStyle=1" parent="a_ci2bYjOTqBM8tlO-We-2" vertex="1">
          <mxGeometry y="208" width="240" height="26" as="geometry" />
        </mxCell>
        <mxCell id="a_ci2bYjOTqBM8tlO-We-9" value="+ prev_state : struct _mp_code_state_t *" style="text;align=left;verticalAlign=top;spacingLeft=4;spacingRight=4;overflow=hidden;rotatable=0;points=[[0,0.5],[1,0.5]];portConstraint=eastwest;fontSize=12;fontStyle=1" parent="a_ci2bYjOTqBM8tlO-We-2" vertex="1">
          <mxGeometry y="234" width="240" height="32" as="geometry" />
        </mxCell>
        <mxCell id="lMU0eE661rHLFskUPlmX-14" value="+ state:  mp_obj_t[] " style="text;strokeColor=none;fillColor=none;align=left;verticalAlign=top;spacingLeft=4;spacingRight=4;overflow=hidden;rotatable=0;points=[[0,0.5],[1,0.5]];portConstraint=eastwest;fontStyle=1" vertex="1" parent="a_ci2bYjOTqBM8tlO-We-2">
          <mxGeometry y="266" width="240" height="26" as="geometry" />
        </mxCell>
        <mxCell id="a_ci2bYjOTqBM8tlO-We-25" value="mp_obj_fun_bc_t" style="swimlane;fontStyle=1;childLayout=stackLayout;horizontal=1;startSize=26;fillColor=#f5f5f5;horizontalStack=0;resizeParent=1;resizeParentMax=0;resizeLast=0;collapsible=1;marginBottom=0;fontSize=14;fontColor=#333333;strokeColor=#666666;" parent="1" vertex="1">
          <mxGeometry x="380" y="438" width="220" height="180" as="geometry" />
        </mxCell>
        <mxCell id="a_ci2bYjOTqBM8tlO-We-28" value="+ base: mp_obj_base_t" style="text;strokeColor=none;fillColor=none;align=left;verticalAlign=top;spacingLeft=4;spacingRight=4;overflow=hidden;rotatable=0;points=[[0,0.5],[1,0.5]];portConstraint=eastwest;fontSize=12;fontStyle=1" parent="a_ci2bYjOTqBM8tlO-We-25" vertex="1">
          <mxGeometry y="26" width="220" height="26" as="geometry" />
        </mxCell>
        <mxCell id="a_ci2bYjOTqBM8tlO-We-27" value="+ globals: mp_obj_dict_t *" style="text;strokeColor=none;fillColor=none;align=left;verticalAlign=top;spacingLeft=4;spacingRight=4;overflow=hidden;rotatable=0;points=[[0,0.5],[1,0.5]];portConstraint=eastwest;fontSize=12;fontStyle=1" parent="a_ci2bYjOTqBM8tlO-We-25" vertex="1">
          <mxGeometry y="52" width="220" height="26" as="geometry" />
        </mxCell>
        <mxCell id="a_ci2bYjOTqBM8tlO-We-26" value="+ bytecode: const byte *" style="text;strokeColor=none;fillColor=none;align=left;verticalAlign=top;spacingLeft=4;spacingRight=4;overflow=hidden;rotatable=0;points=[[0,0.5],[1,0.5]];portConstraint=eastwest;fontSize=12;fontStyle=1" parent="a_ci2bYjOTqBM8tlO-We-25" vertex="1">
          <mxGeometry y="78" width="220" height="24" as="geometry" />
        </mxCell>
        <mxCell id="a_ci2bYjOTqBM8tlO-We-35" value="+ const_table: const mp_uint_t *" style="text;strokeColor=none;fillColor=none;align=left;verticalAlign=top;spacingLeft=4;spacingRight=4;overflow=hidden;rotatable=0;points=[[0,0.5],[1,0.5]];portConstraint=eastwest;fontSize=12;fontStyle=1" parent="a_ci2bYjOTqBM8tlO-We-25" vertex="1">
          <mxGeometry y="102" width="220" height="26" as="geometry" />
        </mxCell>
        <mxCell id="a_ci2bYjOTqBM8tlO-We-36" value="+ rc: const struct _mp_raw_code_t *" style="text;strokeColor=#9673a6;fillColor=#e1d5e7;align=left;verticalAlign=top;spacingLeft=4;spacingRight=4;overflow=hidden;rotatable=0;points=[[0,0.5],[1,0.5]];portConstraint=eastwest;fontSize=12;fontStyle=1" parent="a_ci2bYjOTqBM8tlO-We-25" vertex="1">
          <mxGeometry y="128" width="220" height="26" as="geometry" />
        </mxCell>
        <mxCell id="a_ci2bYjOTqBM8tlO-We-37" value="+ extra_args: mp_obj_t" style="text;strokeColor=none;fillColor=none;align=left;verticalAlign=top;spacingLeft=4;spacingRight=4;overflow=hidden;rotatable=0;points=[[0,0.5],[1,0.5]];portConstraint=eastwest;fontSize=12;fontStyle=1" parent="a_ci2bYjOTqBM8tlO-We-25" vertex="1">
          <mxGeometry y="154" width="220" height="26" as="geometry" />
        </mxCell>
        <mxCell id="a_ci2bYjOTqBM8tlO-We-30" value="mp_obj_frame_t " style="swimlane;fontStyle=1;childLayout=stackLayout;horizontal=1;startSize=26;fillColor=#d5e8d4;horizontalStack=0;resizeParent=1;resizeParentMax=0;resizeLast=0;collapsible=1;marginBottom=0;fontSize=14;strokeColor=#82b366;" parent="1" vertex="1">
          <mxGeometry x="65" y="628" width="240" height="232" as="geometry" />
        </mxCell>
        <mxCell id="a_ci2bYjOTqBM8tlO-We-31" value="+ base: type" style="text;strokeColor=none;fillColor=none;align=left;verticalAlign=top;spacingLeft=4;spacingRight=4;overflow=hidden;rotatable=0;points=[[0,0.5],[1,0.5]];portConstraint=eastwest;fontSize=12;fontStyle=1" parent="a_ci2bYjOTqBM8tlO-We-30" vertex="1">
          <mxGeometry y="26" width="240" height="24" as="geometry" />
        </mxCell>
        <mxCell id="a_ci2bYjOTqBM8tlO-We-43" value="+ code_state: const mp_code_state_t *" style="text;strokeColor=#d6b656;fillColor=#fff2cc;align=left;verticalAlign=top;spacingLeft=4;spacingRight=4;overflow=hidden;rotatable=0;points=[[0,0.5],[1,0.5]];portConstraint=eastwest;fontSize=12;fontStyle=1" parent="a_ci2bYjOTqBM8tlO-We-30" vertex="1">
          <mxGeometry y="50" width="240" height="26" as="geometry" />
        </mxCell>
        <mxCell id="a_ci2bYjOTqBM8tlO-We-32" value="+ back: struct _mp_obj_frame_t *" style="text;strokeColor=none;fillColor=none;align=left;verticalAlign=top;spacingLeft=4;spacingRight=4;overflow=hidden;rotatable=0;points=[[0,0.5],[1,0.5]];portConstraint=eastwest;fontSize=12;fontStyle=1" parent="a_ci2bYjOTqBM8tlO-We-30" vertex="1">
          <mxGeometry y="76" width="240" height="26" as="geometry" />
        </mxCell>
        <mxCell id="a_ci2bYjOTqBM8tlO-We-45" value="+ callback: mp_obj_t " style="text;strokeColor=none;fillColor=none;align=left;verticalAlign=top;spacingLeft=4;spacingRight=4;overflow=hidden;rotatable=0;points=[[0,0.5],[1,0.5]];portConstraint=eastwest;fontSize=12;fontStyle=1" parent="a_ci2bYjOTqBM8tlO-We-30" vertex="1">
          <mxGeometry y="102" width="240" height="26" as="geometry" />
        </mxCell>
        <mxCell id="a_ci2bYjOTqBM8tlO-We-44" value="+ code: mp_obj_code_t *" style="text;strokeColor=#0e8088;fillColor=#b0e3e6;align=left;verticalAlign=top;spacingLeft=4;spacingRight=4;overflow=hidden;rotatable=0;points=[[0,0.5],[1,0.5]];portConstraint=eastwest;fontSize=12;fontStyle=1" parent="a_ci2bYjOTqBM8tlO-We-30" vertex="1">
          <mxGeometry y="128" width="240" height="26" as="geometry" />
        </mxCell>
        <mxCell id="a_ci2bYjOTqBM8tlO-We-33" value="+ lasti: mp_uint_t " style="text;strokeColor=none;fillColor=none;align=left;verticalAlign=top;spacingLeft=4;spacingRight=4;overflow=hidden;rotatable=0;points=[[0,0.5],[1,0.5]];portConstraint=eastwest;fontSize=12;fontStyle=1" parent="a_ci2bYjOTqBM8tlO-We-30" vertex="1">
          <mxGeometry y="154" width="240" height="26" as="geometry" />
        </mxCell>
        <mxCell id="a_ci2bYjOTqBM8tlO-We-47" value="+ lineno: mp_uint_t " style="text;strokeColor=none;fillColor=none;align=left;verticalAlign=top;spacingLeft=4;spacingRight=4;overflow=hidden;rotatable=0;points=[[0,0.5],[1,0.5]];portConstraint=eastwest;fontSize=12;fontStyle=1" parent="a_ci2bYjOTqBM8tlO-We-30" vertex="1">
          <mxGeometry y="180" width="240" height="26" as="geometry" />
        </mxCell>
        <mxCell id="a_ci2bYjOTqBM8tlO-We-49" value="+ trace_opcodes: bool" style="text;strokeColor=none;fillColor=none;align=left;verticalAlign=top;spacingLeft=4;spacingRight=4;overflow=hidden;rotatable=0;points=[[0,0.5],[1,0.5]];portConstraint=eastwest;fontSize=12;fontStyle=1" parent="a_ci2bYjOTqBM8tlO-We-30" vertex="1">
          <mxGeometry y="206" width="240" height="26" as="geometry" />
        </mxCell>
        <mxCell id="a_ci2bYjOTqBM8tlO-We-38" value="mp_raw_code_t " style="swimlane;fontStyle=1;childLayout=stackLayout;horizontal=1;startSize=26;fillColor=#e1d5e7;horizontalStack=0;resizeParent=1;resizeParentMax=0;resizeLast=0;collapsible=1;marginBottom=0;fontSize=14;strokeColor=#9673a6;" parent="1" vertex="1">
          <mxGeometry x="380" y="658" width="210" height="388" as="geometry" />
        </mxCell>
        <mxCell id="a_ci2bYjOTqBM8tlO-We-39" value="+ kind :  mp_uint_t : 3 bits" style="text;strokeColor=none;fillColor=none;align=left;verticalAlign=top;spacingLeft=4;spacingRight=4;overflow=hidden;rotatable=0;points=[[0,0.5],[1,0.5]];portConstraint=eastwest;fontSize=12;fontStyle=1" parent="a_ci2bYjOTqBM8tlO-We-38" vertex="1">
          <mxGeometry y="26" width="210" height="26" as="geometry" />
        </mxCell>
        <mxCell id="a_ci2bYjOTqBM8tlO-We-40" value="+ scope_flags :  mp_uint_t : 7 bit" style="text;strokeColor=none;fillColor=none;align=left;verticalAlign=top;spacingLeft=4;spacingRight=4;overflow=hidden;rotatable=0;points=[[0,0.5],[1,0.5]];portConstraint=eastwest;fontSize=12;fontStyle=1" parent="a_ci2bYjOTqBM8tlO-We-38" vertex="1">
          <mxGeometry y="52" width="210" height="28" as="geometry" />
        </mxCell>
        <mxCell id="a_ci2bYjOTqBM8tlO-We-41" value="+ n_pos_args :  mp_uint_t : 11 bits" style="text;strokeColor=none;fillColor=none;align=left;verticalAlign=top;spacingLeft=4;spacingRight=4;overflow=hidden;rotatable=0;points=[[0,0.5],[1,0.5]];portConstraint=eastwest;fontSize=12;fontStyle=1" parent="a_ci2bYjOTqBM8tlO-We-38" vertex="1">
          <mxGeometry y="80" width="210" height="22" as="geometry" />
        </mxCell>
        <mxCell id="BdHdynzSusa7COlGPXgd-5" value="+ fun_data:  const void *" style="text;strokeColor=none;fillColor=none;align=left;verticalAlign=top;spacingLeft=4;spacingRight=4;overflow=hidden;rotatable=0;points=[[0,0.5],[1,0.5]];portConstraint=eastwest;fontStyle=1" parent="a_ci2bYjOTqBM8tlO-We-38" vertex="1">
          <mxGeometry y="102" width="210" height="26" as="geometry" />
        </mxCell>
        <mxCell id="BdHdynzSusa7COlGPXgd-6" value="+ const_table: const mp_uint_t *" style="text;strokeColor=none;fillColor=none;align=left;verticalAlign=top;spacingLeft=4;spacingRight=4;overflow=hidden;rotatable=0;points=[[0,0.5],[1,0.5]];portConstraint=eastwest;fontStyle=1" parent="a_ci2bYjOTqBM8tlO-We-38" vertex="1">
          <mxGeometry y="128" width="210" height="26" as="geometry" />
        </mxCell>
        <mxCell id="BdHdynzSusa7COlGPXgd-8" value="+ fun_data_len:  size_t" style="text;strokeColor=none;fillColor=none;align=left;verticalAlign=top;spacingLeft=4;spacingRight=4;overflow=hidden;rotatable=0;points=[[0,0.5],[1,0.5]];portConstraint=eastwest;fontStyle=1" parent="a_ci2bYjOTqBM8tlO-We-38" vertex="1">
          <mxGeometry y="154" width="210" height="26" as="geometry" />
        </mxCell>
        <mxCell id="BdHdynzSusa7COlGPXgd-10" value="+ n_obj:  uint16_t" style="text;strokeColor=none;fillColor=none;align=left;verticalAlign=top;spacingLeft=4;spacingRight=4;overflow=hidden;rotatable=0;points=[[0,0.5],[1,0.5]];portConstraint=eastwest;fontStyle=1" parent="a_ci2bYjOTqBM8tlO-We-38" vertex="1">
          <mxGeometry y="180" width="210" height="26" as="geometry" />
        </mxCell>
        <mxCell id="BdHdynzSusa7COlGPXgd-9" value="+ n_raw_code:  uint16_t" style="text;strokeColor=none;fillColor=none;align=left;verticalAlign=top;spacingLeft=4;spacingRight=4;overflow=hidden;rotatable=0;points=[[0,0.5],[1,0.5]];portConstraint=eastwest;fontStyle=1" parent="a_ci2bYjOTqBM8tlO-We-38" vertex="1">
          <mxGeometry y="206" width="210" height="26" as="geometry" />
        </mxCell>
        <mxCell id="BdHdynzSusa7COlGPXgd-11" value="+ prelude: mp_bytecode_prelude_t" style="text;strokeColor=#996185;fillColor=#e6d0de;align=left;verticalAlign=top;spacingLeft=4;spacingRight=4;overflow=hidden;rotatable=0;points=[[0,0.5],[1,0.5]];portConstraint=eastwest;fontStyle=1;gradientColor=#d5739d;" parent="a_ci2bYjOTqBM8tlO-We-38" vertex="1">
          <mxGeometry y="232" width="210" height="26" as="geometry" />
        </mxCell>
        <mxCell id="BdHdynzSusa7COlGPXgd-7" value="+ line_of_definition: mp_uint_t" style="text;strokeColor=none;fillColor=none;align=left;verticalAlign=top;spacingLeft=4;spacingRight=4;overflow=hidden;rotatable=0;points=[[0,0.5],[1,0.5]];portConstraint=eastwest;fontStyle=1" parent="a_ci2bYjOTqBM8tlO-We-38" vertex="1">
          <mxGeometry y="258" width="210" height="26" as="geometry" />
        </mxCell>
        <mxCell id="BdHdynzSusa7COlGPXgd-12" value="+ prelude_offset: uint16_t" style="text;strokeColor=none;fillColor=none;align=left;verticalAlign=top;spacingLeft=4;spacingRight=4;overflow=hidden;rotatable=0;points=[[0,0.5],[1,0.5]];portConstraint=eastwest;fontStyle=1" parent="a_ci2bYjOTqBM8tlO-We-38" vertex="1">
          <mxGeometry y="284" width="210" height="26" as="geometry" />
        </mxCell>
        <mxCell id="BdHdynzSusa7COlGPXgd-13" value="+ n_qstr: uint16_t" style="text;strokeColor=none;fillColor=none;align=left;verticalAlign=top;spacingLeft=4;spacingRight=4;overflow=hidden;rotatable=0;points=[[0,0.5],[1,0.5]];portConstraint=eastwest;fontStyle=1" parent="a_ci2bYjOTqBM8tlO-We-38" vertex="1">
          <mxGeometry y="310" width="210" height="26" as="geometry" />
        </mxCell>
        <mxCell id="BdHdynzSusa7COlGPXgd-15" value="+ qstr_link:  mp_qstr_link_entry_t *" style="text;strokeColor=none;fillColor=none;align=left;verticalAlign=top;spacingLeft=4;spacingRight=4;overflow=hidden;rotatable=0;points=[[0,0.5],[1,0.5]];portConstraint=eastwest;fontStyle=1" parent="a_ci2bYjOTqBM8tlO-We-38" vertex="1">
          <mxGeometry y="336" width="210" height="26" as="geometry" />
        </mxCell>
        <mxCell id="BdHdynzSusa7COlGPXgd-14" value="+ type_sig:  mp_uint_t" style="text;strokeColor=none;fillColor=none;align=left;verticalAlign=top;spacingLeft=4;spacingRight=4;overflow=hidden;rotatable=0;points=[[0,0.5],[1,0.5]];portConstraint=eastwest;fontStyle=1" parent="a_ci2bYjOTqBM8tlO-We-38" vertex="1">
          <mxGeometry y="362" width="210" height="26" as="geometry" />
        </mxCell>
        <mxCell id="a_ci2bYjOTqBM8tlO-We-52" value="mp_obj_code_t" style="swimlane;fontStyle=1;childLayout=stackLayout;horizontal=1;startSize=26;fillColor=#b0e3e6;horizontalStack=0;resizeParent=1;resizeParentMax=0;resizeLast=0;collapsible=1;marginBottom=0;fontSize=14;strokeColor=#0e8088;" parent="1" vertex="1">
          <mxGeometry x="80" y="908" width="230" height="130" as="geometry" />
        </mxCell>
        <mxCell id="a_ci2bYjOTqBM8tlO-We-53" value="+ base: mp_obj_base_t" style="text;strokeColor=none;fillColor=none;align=left;verticalAlign=top;spacingLeft=4;spacingRight=4;overflow=hidden;rotatable=0;points=[[0,0.5],[1,0.5]];portConstraint=eastwest;fontSize=12;fontStyle=1" parent="a_ci2bYjOTqBM8tlO-We-52" vertex="1">
          <mxGeometry y="26" width="230" height="26" as="geometry" />
        </mxCell>
        <mxCell id="a_ci2bYjOTqBM8tlO-We-54" value="+ rc: const mp_raw_code_t *" style="text;strokeColor=#9673a6;fillColor=#e1d5e7;align=left;verticalAlign=top;spacingLeft=4;spacingRight=4;overflow=hidden;rotatable=0;points=[[0,0.5],[1,0.5]];portConstraint=eastwest;fontSize=12;fontStyle=1" parent="a_ci2bYjOTqBM8tlO-We-52" vertex="1">
          <mxGeometry y="52" width="230" height="26" as="geometry" />
        </mxCell>
        <mxCell id="a_ci2bYjOTqBM8tlO-We-55" value="+ dict_locals: mp_obj_dict_t *" style="text;strokeColor=none;fillColor=none;align=left;verticalAlign=top;spacingLeft=4;spacingRight=4;overflow=hidden;rotatable=0;points=[[0,0.5],[1,0.5]];portConstraint=eastwest;fontSize=12;fontStyle=1" parent="a_ci2bYjOTqBM8tlO-We-52" vertex="1">
          <mxGeometry y="78" width="230" height="26" as="geometry" />
        </mxCell>
        <mxCell id="BdHdynzSusa7COlGPXgd-1" value="+ lnotab: mp_obj_t " style="text;strokeColor=none;fillColor=none;align=left;verticalAlign=top;spacingLeft=4;spacingRight=4;overflow=hidden;rotatable=0;points=[[0,0.5],[1,0.5]];portConstraint=eastwest;fontStyle=1" parent="a_ci2bYjOTqBM8tlO-We-52" vertex="1">
          <mxGeometry y="104" width="230" height="26" as="geometry" />
        </mxCell>
        <mxCell id="BdHdynzSusa7COlGPXgd-23" value="mp_bytecode_prelude_t" style="swimlane;fontStyle=1;childLayout=stackLayout;horizontal=1;startSize=26;fillColor=#e6d0de;horizontalStack=0;resizeParent=1;resizeParentMax=0;resizeLast=0;collapsible=1;marginBottom=0;fontSize=14;strokeColor=#996185;gradientColor=#d5739d;" parent="1" vertex="1">
          <mxGeometry x="640" y="658" width="180" height="286" as="geometry" />
        </mxCell>
        <mxCell id="BdHdynzSusa7COlGPXgd-24" value="+ n_state:  uint" style="text;strokeColor=none;fillColor=none;align=left;verticalAlign=top;spacingLeft=4;spacingRight=4;overflow=hidden;rotatable=0;points=[[0,0.5],[1,0.5]];portConstraint=eastwest;fontSize=12;fontStyle=1" parent="BdHdynzSusa7COlGPXgd-23" vertex="1">
          <mxGeometry y="26" width="180" height="26" as="geometry" />
        </mxCell>
        <mxCell id="BdHdynzSusa7COlGPXgd-25" value="+ n_exc_stack:  uint" style="text;strokeColor=none;fillColor=none;align=left;verticalAlign=top;spacingLeft=4;spacingRight=4;overflow=hidden;rotatable=0;points=[[0,0.5],[1,0.5]];portConstraint=eastwest;fontSize=12;fontStyle=1" parent="BdHdynzSusa7COlGPXgd-23" vertex="1">
          <mxGeometry y="52" width="180" height="26" as="geometry" />
        </mxCell>
        <mxCell id="BdHdynzSusa7COlGPXgd-31" value="+ scope_flags:  uint" style="text;strokeColor=none;fillColor=none;align=left;verticalAlign=top;spacingLeft=4;spacingRight=4;overflow=hidden;rotatable=0;points=[[0,0.5],[1,0.5]];portConstraint=eastwest;fontSize=12;fontStyle=1" parent="BdHdynzSusa7COlGPXgd-23" vertex="1">
          <mxGeometry y="78" width="180" height="26" as="geometry" />
        </mxCell>
        <mxCell id="BdHdynzSusa7COlGPXgd-32" value="+ n_pos_args:  uint" style="text;strokeColor=none;fillColor=none;align=left;verticalAlign=top;spacingLeft=4;spacingRight=4;overflow=hidden;rotatable=0;points=[[0,0.5],[1,0.5]];portConstraint=eastwest;fontSize=12;fontStyle=1" parent="BdHdynzSusa7COlGPXgd-23" vertex="1">
          <mxGeometry y="104" width="180" height="26" as="geometry" />
        </mxCell>
        <mxCell id="BdHdynzSusa7COlGPXgd-34" value="+ n_kwonly_args:  uint" style="text;strokeColor=none;fillColor=none;align=left;verticalAlign=top;spacingLeft=4;spacingRight=4;overflow=hidden;rotatable=0;points=[[0,0.5],[1,0.5]];portConstraint=eastwest;fontSize=12;fontStyle=1" parent="BdHdynzSusa7COlGPXgd-23" vertex="1">
          <mxGeometry y="130" width="180" height="26" as="geometry" />
        </mxCell>
        <mxCell id="BdHdynzSusa7COlGPXgd-35" value="+ n_def_pos_args:  uint" style="text;strokeColor=none;fillColor=none;align=left;verticalAlign=top;spacingLeft=4;spacingRight=4;overflow=hidden;rotatable=0;points=[[0,0.5],[1,0.5]];portConstraint=eastwest;fontSize=12;fontStyle=1" parent="BdHdynzSusa7COlGPXgd-23" vertex="1">
          <mxGeometry y="156" width="180" height="26" as="geometry" />
        </mxCell>
        <mxCell id="BdHdynzSusa7COlGPXgd-36" value="+ qstr_block_name: qstr" style="text;strokeColor=none;fillColor=none;align=left;verticalAlign=top;spacingLeft=4;spacingRight=4;overflow=hidden;rotatable=0;points=[[0,0.5],[1,0.5]];portConstraint=eastwest;fontSize=12;fontStyle=1" parent="BdHdynzSusa7COlGPXgd-23" vertex="1">
          <mxGeometry y="182" width="180" height="26" as="geometry" />
        </mxCell>
        <mxCell id="BdHdynzSusa7COlGPXgd-33" value="+ qstr_source_file: qstr" style="text;strokeColor=none;fillColor=none;align=left;verticalAlign=top;spacingLeft=4;spacingRight=4;overflow=hidden;rotatable=0;points=[[0,0.5],[1,0.5]];portConstraint=eastwest;fontSize=12;fontStyle=1" parent="BdHdynzSusa7COlGPXgd-23" vertex="1">
          <mxGeometry y="208" width="180" height="26" as="geometry" />
        </mxCell>
        <mxCell id="BdHdynzSusa7COlGPXgd-37" value="+ line_info: const byte *" style="text;strokeColor=none;fillColor=none;align=left;verticalAlign=top;spacingLeft=4;spacingRight=4;overflow=hidden;rotatable=0;points=[[0,0.5],[1,0.5]];portConstraint=eastwest;fontSize=12;fontStyle=1" parent="BdHdynzSusa7COlGPXgd-23" vertex="1">
          <mxGeometry y="234" width="180" height="26" as="geometry" />
        </mxCell>
        <mxCell id="BdHdynzSusa7COlGPXgd-39" value="+ opcodes: const byte *" style="text;strokeColor=none;fillColor=none;align=left;verticalAlign=top;spacingLeft=4;spacingRight=4;overflow=hidden;rotatable=0;points=[[0,0.5],[1,0.5]];portConstraint=eastwest;fontSize=12;fontStyle=1" parent="BdHdynzSusa7COlGPXgd-23" vertex="1">
          <mxGeometry y="260" width="180" height="26" as="geometry" />
        </mxCell>
        <mxCell id="BdHdynzSusa7COlGPXgd-27" style="edgeStyle=orthogonalEdgeStyle;rounded=0;orthogonalLoop=1;jettySize=auto;html=1;entryX=0.002;entryY=0.046;entryDx=0;entryDy=0;fontSize=12;entryPerimeter=0;" parent="1" source="BdHdynzSusa7COlGPXgd-11" target="BdHdynzSusa7COlGPXgd-23" edge="1">
          <mxGeometry relative="1" as="geometry" />
        </mxCell>
        <mxCell id="BdHdynzSusa7COlGPXgd-48" style="edgeStyle=orthogonalEdgeStyle;rounded=0;orthogonalLoop=1;jettySize=auto;html=1;fontSize=14;" parent="1" source="a_ci2bYjOTqBM8tlO-We-54" target="a_ci2bYjOTqBM8tlO-We-38" edge="1">
          <mxGeometry relative="1" as="geometry" />
        </mxCell>
        <mxCell id="BdHdynzSusa7COlGPXgd-49" style="edgeStyle=orthogonalEdgeStyle;rounded=0;orthogonalLoop=1;jettySize=auto;html=1;fontSize=14;" parent="1" source="a_ci2bYjOTqBM8tlO-We-36" target="a_ci2bYjOTqBM8tlO-We-38" edge="1">
          <mxGeometry relative="1" as="geometry">
            <Array as="points">
              <mxPoint x="360" y="579" />
              <mxPoint x="360" y="638" />
              <mxPoint x="485" y="638" />
            </Array>
          </mxGeometry>
        </mxCell>
        <mxCell id="lMU0eE661rHLFskUPlmX-11" style="edgeStyle=orthogonalEdgeStyle;rounded=0;orthogonalLoop=1;jettySize=auto;html=1;" edge="1" parent="1" source="a_ci2bYjOTqBM8tlO-We-3" target="a_ci2bYjOTqBM8tlO-We-25">
          <mxGeometry relative="1" as="geometry">
            <Array as="points">
              <mxPoint x="340" y="329" />
              <mxPoint x="340" y="528" />
            </Array>
          </mxGeometry>
        </mxCell>
        <mxCell id="lMU0eE661rHLFskUPlmX-13" style="edgeStyle=orthogonalEdgeStyle;rounded=0;orthogonalLoop=1;jettySize=auto;html=1;entryX=0.467;entryY=-0.004;entryDx=0;entryDy=0;entryPerimeter=0;" edge="1" parent="1" source="a_ci2bYjOTqBM8tlO-We-4" target="a_ci2bYjOTqBM8tlO-We-30">
          <mxGeometry relative="1" as="geometry">
            <Array as="points">
              <mxPoint x="45" y="511" />
              <mxPoint x="45" y="600" />
              <mxPoint x="177" y="600" />
            </Array>
          </mxGeometry>
        </mxCell>
        <mxCell id="lMU0eE661rHLFskUPlmX-15" value="&lt;h1&gt;Codestate Objects Relationship&lt;br&gt;&lt;/h1&gt;&lt;p align=&quot;justify&quot;&gt;&lt;font style=&quot;font-size: 14px&quot;&gt;Each time that a function bytecode execute; a&amp;nbsp; &lt;b&gt;mp_code_state_t&lt;/b&gt; structure will be create for monitoring and controls executing of code. This structure will be prepare later by &lt;b&gt;mp_setup_code_state&lt;/b&gt; function that located in bc.c file. When a function code compile by a compiler, at the end a structure named &lt;b&gt;mp_obj_fun_bc_t&lt;/b&gt; will be created. this structure include all information about function and also its byteode. &lt;b&gt;mp_obj_frame_t&lt;/b&gt; structure use by MicroPython for tracing and profiling the code and it is useful for debugging code scripts.&amp;nbsp;&lt;/font&gt; &lt;br&gt;&lt;/p&gt;" style="text;html=1;strokeColor=none;fillColor=none;spacing=5;spacingTop=-20;whiteSpace=wrap;overflow=hidden;rounded=0;" vertex="1" parent="1">
          <mxGeometry x="40" y="40" width="790" height="220" as="geometry" />
        </mxCell>
        <mxCell id="lMU0eE661rHLFskUPlmX-32" style="edgeStyle=orthogonalEdgeStyle;rounded=0;orthogonalLoop=1;jettySize=auto;html=1;fontSize=14;" edge="1" parent="1" source="a_ci2bYjOTqBM8tlO-We-44" target="a_ci2bYjOTqBM8tlO-We-52">
          <mxGeometry relative="1" as="geometry">
            <Array as="points">
              <mxPoint x="325" y="769" />
              <mxPoint x="325" y="880" />
              <mxPoint x="195" y="880" />
            </Array>
          </mxGeometry>
        </mxCell>
        <mxCell id="lMU0eE661rHLFskUPlmX-34" style="edgeStyle=orthogonalEdgeStyle;rounded=0;orthogonalLoop=1;jettySize=auto;html=1;fontSize=14;" edge="1" parent="1" source="a_ci2bYjOTqBM8tlO-We-43" target="a_ci2bYjOTqBM8tlO-We-2">
          <mxGeometry relative="1" as="geometry">
            <Array as="points">
              <mxPoint x="340" y="691" />
              <mxPoint x="340" y="610" />
              <mxPoint x="185" y="610" />
            </Array>
          </mxGeometry>
        </mxCell>
      </root>
    </mxGraphModel>
  </diagram>
</mxfile>
